<?xml version="1.0" standalone="no"?>
<!DOCTYPE svg PUBLIC "-//W3C//DTD SVG 20010904//EN"
 "http://www.w3.org/TR/2001/REC-SVG-20010904/DTD/svg10.dtd">
<svg version="1.0" xmlns="http://www.w3.org/2000/svg"
 width="667.000000pt" height="167.000000pt" viewBox="0 0 667.000000 167.000000"
 preserveAspectRatio="xMidYMid meet">

<g transform="translate(0.000000,167.000000) scale(0.100000,-0.100000)"
fill="#000000" stroke="none">
<path d="M4727 1415 c-12 -12 -15 -79 -16 -417 -1 -222 -4 -424 -7 -451 -7
-53 12 -87 50 -87 53 1 68 39 74 189 5 119 6 127 38 182 68 115 171 172 219
119 16 -17 19 -41 21 -163 5 -229 34 -347 85 -347 61 0 73 28 54 137 -8 48
-19 157 -24 241 -14 211 -40 259 -150 270 -68 6 -132 -19 -193 -76 l-48 -45 0
196 c0 190 -7 242 -33 259 -19 12 -54 9 -70 -7z"/>
<path d="M3570 1360 c-43 -43 -11 -120 49 -120 32 0 71 39 71 70 0 10 -9 29
-21 44 -25 32 -70 35 -99 6z"/>
<path d="M2387 1317 c-46 -57 -170 -247 -241 -372 -38 -67 -68 -107 -88 -118
-27 -15 -30 -22 -26 -54 3 -28 -6 -60 -39 -132 -50 -112 -54 -144 -18 -167 55
-36 90 3 165 189 27 64 14 58 190 96 52 11 108 22 124 23 l29 3 22 -105 c25
-118 46 -174 77 -207 25 -27 45 -29 76 -7 29 20 28 55 -2 141 -23 63 -99 400
-141 622 -27 140 -64 166 -128 88z m42 -275 c31 -137 37 -126 -81 -150 -57
-11 -103 -19 -104 -19 -2 3 161 265 163 263 1 -1 11 -43 22 -94z"/>
<path d="M925 1344 c-83 -13 -274 -58 -329 -79 -69 -26 -162 -77 -251 -137
-101 -69 -279 -208 -307 -242 -36 -41 -46 -85 -23 -102 9 -7 14 -18 10 -26 -3
-7 0 -5 8 5 8 9 18 17 24 17 5 0 61 51 124 113 63 61 129 121 148 131 l34 19
-5 -79 c-3 -43 -1 -113 4 -154 8 -73 42 -205 58 -225 15 -19 80 -146 80 -155
0 -19 -25 -10 -164 55 -77 36 -141 63 -144 61 -10 -10 13 -26 107 -74 187 -97
325 -137 506 -147 115 -6 147 -4 277 19 171 31 201 40 320 103 107 57 230 161
291 246 49 68 138 239 115 220 -8 -7 -39 -54 -69 -104 -59 -100 -151 -201
-248 -273 -70 -51 -96 -59 -86 -25 30 94 48 170 61 264 17 120 24 345 11 413
-6 37 -5 42 11 42 33 0 195 -59 287 -104 50 -25 104 -47 120 -51 29 -6 29 -6
11 9 -11 9 -14 16 -8 16 24 0 -8 39 -49 60 -83 43 -337 139 -424 161 -75 18
-122 22 -280 25 -104 1 -203 0 -220 -2z m355 -159 c32 -16 63 -68 75 -123 20
-96 -12 -182 -79 -213 -79 -36 -145 -18 -200 54 -53 69 -43 199 18 256 43 40
134 53 186 26z m59 -346 c-10 -20 -9 -21 10 -16 11 3 24 1 27 -4 3 -5 10 -7
15 -4 5 4 9 -2 9 -12 0 -15 2 -16 10 -3 16 24 12 -16 -10 -124 -21 -102 -34
-135 -83 -203 -32 -45 -46 -53 -154 -82 -172 -47 -313 -48 -516 -4 -72 15 -81
20 -103 52 -21 33 -74 154 -74 171 0 4 13 5 29 2 16 -2 39 2 52 9 33 18 49 19
69 6 18 -10 18 -12 -1 -35 -12 -16 -19 -40 -19 -69 0 -94 99 -138 161 -72 27
29 30 30 65 19 46 -16 113 -9 185 19 125 48 208 132 249 251 14 41 34 75 53
93 38 33 41 33 26 6z m-584 -264 c34 -33 31 -61 -10 -102 -38 -38 -61 -38
-102 0 -48 43 -10 127 57 127 19 0 40 -9 55 -25z"/>
<path d="M4168 1331 c-190 -61 -301 -228 -225 -342 35 -54 115 -88 232 -100
115 -12 183 -37 225 -86 34 -38 39 -86 15 -133 -46 -89 -218 -142 -350 -109
-45 11 -67 28 -117 87 -49 59 -117 29 -105 -45 13 -81 133 -150 277 -160 183
-13 355 67 411 191 25 54 25 148 0 201 -43 93 -127 139 -282 156 -195 21 -244
72 -162 169 59 70 155 92 281 65 95 -21 129 -15 138 22 10 38 -29 67 -115 87
-90 20 -152 20 -223 -3z"/>
<path d="M6078 1120 c-33 -20 -39 -69 -28 -226 5 -82 10 -282 10 -445 0 -274
1 -297 18 -312 23 -21 52 -22 78 -3 17 13 19 30 22 174 l3 160 37 -9 c53 -12
128 -11 174 3 49 14 123 78 148 127 65 128 35 370 -55 450 -70 61 -161 66
-265 14 l-60 -30 0 43 c0 33 -5 46 -19 54 -24 12 -41 12 -63 0z m319 -165 c35
-25 58 -100 57 -190 0 -156 -77 -220 -223 -185 l-51 12 0 72 c0 40 -2 106 -5
147 l-5 74 35 29 c64 52 150 70 192 41z"/>
<path d="M2877 1102 c-14 -15 -17 -41 -17 -133 -1 -63 -4 -170 -9 -239 -14
-221 1 -290 64 -290 45 0 53 25 52 160 0 118 2 129 31 200 41 96 99 165 154
182 38 11 42 10 59 -11 16 -20 19 -41 19 -160 0 -173 23 -351 47 -369 24 -17
58 -15 78 5 14 14 16 30 11 97 -3 45 -9 161 -14 258 -8 158 -12 183 -33 224
-28 54 -75 84 -132 84 -54 0 -99 -22 -157 -76 l-50 -47 0 37 c0 81 -60 126
-103 78z"/>
<path d="M3556 1071 c-16 -17 -19 -51 -23 -285 -5 -237 -4 -268 11 -290 11
-18 25 -26 46 -26 54 0 58 17 62 314 4 251 3 271 -14 288 -23 23 -60 23 -82
-1z"/>
<path d="M5590 1081 c-121 -37 -207 -160 -217 -310 -15 -213 120 -365 300
-337 88 14 160 80 204 187 14 34 18 71 18 159 0 127 -18 185 -73 244 -53 56
-153 81 -232 57z m129 -126 c40 -20 64 -77 69 -166 5 -86 -7 -135 -45 -180
-102 -121 -252 -48 -253 123 0 163 120 280 229 223z"/>
</g>
</svg>
